<?xml version="1.0" encoding="UTF-8" standalone="yes"?>
<svg xmlns="http://www.w3.org/2000/svg" xmlns:xlink="http://www.w3.org/1999/xlink" width="80pt" height="80pt" viewBox="0 0 80 80" version="1.1" fill="#000000">
  <g id="surface70737">
    <path style="fill:none;stroke-width:1;stroke-linecap:butt;stroke-linejoin:miter;stroke:#000000;stroke-opacity:1;stroke-miterlimit:10;" d="M 10.625 14.899219 L 8.625 15.375 L 9.100781 13.375 L 13.667969 8.729688 C 13.964063 8.425781 14.452344 8.422656 14.752344 8.722656 L 15.277344 9.247656 C 15.577344 9.547656 15.574219 10.035938 15.270313 10.332031 Z M 10.625 14.899219 " transform="matrix(5,0,0,5,0,0)"/>
    <path style=" stroke:none;fill-rule:nonzero;fill:#000000;fill-opacity:1;" d="M 38.238281 65 L 12.5 65 C 11.121094 65 10 63.878906 10 62.5 L 10 17.5 C 10 16.121094 11.121094 15 12.5 15 L 67.5 15 C 68.878906 15 70 16.121094 70 17.5 L 70 35.105469 C 70.335938 35.074219 70.660156 35 70.996094 35 L 71.121094 35 L 71.246094 35.003906 C 72.585938 35.066406 73.828125 35.351562 75 35.773438 L 75 17.5 C 75 13.363281 71.636719 10 67.5 10 L 12.5 10 C 8.363281 10 5 13.363281 5 17.5 L 5 62.5 C 5 66.636719 8.363281 70 12.5 70 L 37.050781 70 Z M 38.238281 65 "/>
    <path style=" stroke:none;fill-rule:nonzero;fill:#000000;fill-opacity:1;" d="M 55 20 C 52.238281 20 50 22.238281 50 25 C 50 27.761719 52.238281 30 55 30 C 57.761719 30 60 27.761719 60 25 C 60 22.238281 57.761719 20 55 20 Z M 49.140625 53.09375 L 46.164062 49.953125 L 52.589844 42.71875 L 55.898438 46.214844 L 59.40625 42.648438 L 52.46875 35.328125 L 42.710938 46.316406 L 27.671875 30.445312 L 5.648438 55.226562 L 9.390625 58.546875 L 27.785156 37.835938 L 45.628906 56.660156 Z M 49.140625 53.09375 "/>
  </g>
</svg>