<?xml version="1.0" encoding="UTF-8" standalone="yes"?>
<svg xmlns="http://www.w3.org/2000/svg" xmlns:xlink="http://www.w3.org/1999/xlink" width="80pt" height="80pt" viewBox="0 0 80 80" version="1.1" fill="#000000">
  <g id="surface175147">
    <path style="fill:none;stroke-width:2;stroke-linecap:butt;stroke-linejoin:miter;stroke:#000000;stroke-opacity:1;stroke-miterlimit:10;" d="M 48.999023 10 L 40 10 L 40 1.000977 M 40.200195 9.799805 L 49.099121 0.900879 M 40 48.999023 L 40 40 L 48.999023 40 M 40.200195 40.200195 L 49.099121 49.099121 M 1.000977 40 L 10 40 L 10 48.999023 M 9.799805 40.200195 L 0.900879 49.099121 M 10 1.000977 L 10 10 L 1.000977 10 M 9.799805 9.799805 L 0.900879 0.900879 M 21.000977 25 C 21.000977 22.800293 22.800293 21.000977 25 21.000977 C 27.199707 21.000977 28.999023 22.800293 28.999023 25 C 28.999023 27.199707 27.199707 28.999023 25 28.999023 C 22.800293 28.999023 21.000977 27.199707 21.000977 25 Z M 25 31.000977 C 21.101074 31.000977 18.000488 33.200684 18.000488 35.200195 L 18.000488 38.000488 L 31.999512 38.000488 L 31.999512 35.200195 C 31.999512 33.200684 28.898926 31.000977 25 31.000977 Z M 21.000977 13.999023 C 21.000977 11.799316 22.800293 10 25 10 C 27.199707 10 28.999023 11.799316 28.999023 13.999023 C 28.999023 16.201172 27.199707 18.000488 25 18.000488 C 22.800293 18.000488 21.000977 16.201172 21.000977 13.999023 Z M 21.000977 13.999023 " transform="matrix(1.6,0,0,1.6,0,0)"/>
    <path style="fill:none;stroke-width:2;stroke-linecap:round;stroke-linejoin:miter;stroke:#000000;stroke-opacity:1;stroke-miterlimit:10;" d="M 31.000977 20 C 31.000977 17.800293 32.800293 16.000977 35 16.000977 C 37.199707 16.000977 38.999023 17.800293 38.999023 20 C 38.999023 22.199707 37.199707 23.999023 35 23.999023 C 32.800293 23.999023 31.000977 22.199707 31.000977 20 Z M 35 33.000488 L 41.999512 33.000488 L 41.999512 30.200195 C 41.999512 28.300781 38.898926 26.000977 35 26.000977 C 33.798828 26.000977 32.700195 26.201172 31.799316 26.499023 M 15 23.999023 C 12.800293 23.999023 11.000977 22.199707 11.000977 20 C 11.000977 17.800293 12.800293 16.000977 15 16.000977 C 17.199707 16.000977 18.999023 17.800293 18.999023 20 C 18.999023 22.199707 17.199707 23.999023 15 23.999023 Z M 18.200684 26.499023 C 17.199707 26.201172 16.101074 26.000977 15 26.000977 C 11.101074 26.000977 8.000488 28.200684 8.000488 30.200195 L 8.000488 33.000488 L 15 33.000488 " transform="matrix(1.6,0,0,1.6,0,0)"/>
  </g>
</svg>