<?xml version="1.0" encoding="UTF-8" standalone="yes"?>
<svg xmlns="http://www.w3.org/2000/svg" xmlns:xlink="http://www.w3.org/1999/xlink" width="80pt" height="80pt" viewBox="0 0 80 80" version="1.1" fill="#000000">
  <g id="surface70950">
    <path style="fill:none;stroke-width:2;stroke-linecap:butt;stroke-linejoin:round;stroke:#000000;stroke-opacity:1;stroke-miterlimit:10;" d="M 38.461914 47.229004 L 9.614258 47.229004 C 9.614258 47.229004 1.923828 47.321777 1.923828 39.484863 C 1.923828 31.643066 1.923828 3.769531 1.923828 3.769531 " transform="matrix(1.6,0,0,1.6,0,0)"/>
    <path style="fill:none;stroke-width:2;stroke-linecap:butt;stroke-linejoin:round;stroke:#000000;stroke-opacity:1;stroke-miterlimit:10;" d="M 48.076172 39.538574 C 48.076172 47.233887 41.384277 47.229004 41.384277 47.229004 C 41.384277 47.229004 33.693848 47.202148 33.693848 39.484863 C 33.693848 31.765137 33.693848 3.769531 33.693848 3.769531 L 1.923828 3.769531 C 1.923828 3.769531 1.923828 31.643066 1.923828 39.484863 C 1.923828 47.321777 9.614258 47.229004 9.614258 47.229004 L 40.385742 47.229004 " transform="matrix(1.6,0,0,1.6,0,0)"/>
    <path style="fill:none;stroke-width:2;stroke-linecap:round;stroke-linejoin:round;stroke:#000000;stroke-opacity:1;stroke-miterlimit:10;" d="M 40.385742 38.615723 L 40.385742 14.384766 C 40.385742 14.384766 40.476074 10.539551 44.230957 10.539551 C 47.98584 10.539551 48.078613 14.438477 48.078613 14.438477 L 48.078613 39.538574 " transform="matrix(1.6,0,0,1.6,0,0)"/>
    <path style="fill:none;stroke-width:2;stroke-linecap:butt;stroke-linejoin:round;stroke:#000000;stroke-opacity:1;stroke-miterlimit:10;" d="M 44.230957 10.495605 L 34.755859 10.495605 " transform="matrix(1.6,0,0,1.6,0,0)"/>
    <path style="fill:none;stroke-width:2;stroke-linecap:round;stroke-linejoin:round;stroke:#000000;stroke-opacity:1;stroke-miterlimit:10;" d="M 7.692871 28.000488 L 14.462891 28.000488 M 7.692871 23.999023 L 14.462891 23.999023 M 7.692871 31.999512 L 14.462891 31.999512 M 7.692871 36.000977 L 14.462891 36.000977 M 7.692871 40 L 14.462891 40 M 19.230957 28.000488 L 26.923828 28.000488 M 19.230957 23.999023 L 26.923828 23.999023 M 7.229004 16.000977 L 26.923828 16.000977 M 7.229004 11.999512 L 26.923828 11.999512 M 19.230957 31.77002 L 26.923828 31.77002 M 19.230957 35.769043 L 26.923828 35.769043 M 19.230957 39.538574 L 26.923828 39.538574 " transform="matrix(1.6,0,0,1.6,0,0)"/>
  </g>
</svg>