<?xml version="1.0" encoding="UTF-8" standalone="yes"?>
<svg xmlns="http://www.w3.org/2000/svg" xmlns:xlink="http://www.w3.org/1999/xlink" width="80pt" height="80pt" viewBox="0 0 80 80" version="1.1" fill="#000000">
  <g id="surface69436">
    <path style="fill:none;stroke-width:2;stroke-linecap:butt;stroke-linejoin:miter;stroke:#000000;stroke-opacity:1;stroke-miterlimit:10;" d="M 41.999512 18.999023 L 28.999023 18.999023 M 41.999512 25 L 28.999023 25 " transform="matrix(1.6,0,0,1.6,0,0)"/>
    <path style=" stroke:none;fill-rule:nonzero;fill:#000000;fill-opacity:1;" d="M 80 56.960938 L 74.632812 54.125 L 73.582031 48.160156 L 67.566406 49.007812 L 63.199219 44.800781 L 58.832031 49.007812 L 52.816406 48.160156 L 51.769531 54.125 L 46.398438 56.960938 L 49.070312 62.398438 L 46.398438 67.839844 L 51.769531 70.675781 L 52.816406 76.636719 L 58.832031 75.789062 L 63.199219 80 L 67.566406 75.792969 L 73.582031 76.640625 L 74.632812 70.675781 L 80 67.839844 L 77.332031 62.398438 Z M 73.125 67.851562 L 71.738281 68.585938 L 71.464844 70.125 L 70.953125 73.039062 L 68.015625 72.625 L 66.460938 72.40625 L 65.332031 73.496094 L 63.195312 75.550781 L 61.0625 73.492188 L 59.933594 72.40625 L 58.378906 72.625 L 55.441406 73.039062 L 54.929688 70.125 L 54.65625 68.585938 L 53.269531 67.851562 L 50.644531 66.464844 L 51.949219 63.804688 L 52.644531 62.398438 L 51.953125 60.992188 L 50.648438 58.335938 L 53.273438 56.945312 L 54.660156 56.214844 L 54.933594 54.671875 L 55.445312 51.761719 L 58.382812 52.175781 L 59.9375 52.394531 L 61.066406 51.304688 L 63.199219 49.253906 L 65.332031 51.308594 L 66.460938 52.398438 L 68.015625 52.179688 L 70.957031 51.765625 L 71.46875 54.679688 L 71.738281 56.21875 L 73.125 56.953125 L 75.75 58.335938 L 74.445312 60.996094 L 73.757812 62.398438 L 74.445312 63.804688 L 75.75 66.464844 Z M 73.125 67.851562 "/>
    <path style=" stroke:none;fill-rule:nonzero;fill:#000000;fill-opacity:1;" d="M 72 11.199219 L 8 11.199219 C 5.355469 11.199219 3.199219 13.355469 3.199219 16 L 3.199219 64 C 3.199219 66.644531 5.355469 68.800781 8 68.800781 L 17.601562 68.800781 C 18.484375 68.800781 19.199219 68.082031 19.199219 67.199219 L 19.199219 64.800781 C 19.199219 64.324219 18.988281 63.875 18.625 63.570312 C 18.160156 63.183594 17.417969 62.359375 17.640625 61.164062 C 17.839844 60.113281 18.777344 59.273438 19.828125 59.207031 C 20.53125 59.15625 21.171875 59.386719 21.65625 59.839844 C 22.136719 60.292969 22.398438 60.914062 22.398438 61.601562 C 22.398438 62.570312 21.757812 63.253906 21.375 63.570312 C 21.011719 63.875 20.800781 64.324219 20.800781 64.800781 L 20.800781 67.199219 C 20.800781 68.082031 21.515625 68.800781 22.398438 68.800781 L 42.363281 68.800781 L 43.933594 65.601562 L 24 65.601562 L 24 65.488281 C 25.035156 64.398438 25.601562 63.039062 25.601562 61.601562 C 25.601562 60.023438 24.976562 58.566406 23.847656 57.507812 C 22.710938 56.441406 21.21875 55.917969 19.625 56.011719 C 17.121094 56.171875 14.964844 58.089844 14.496094 60.574219 C 14.160156 62.371094 14.703125 64.128906 16 65.492188 L 16 65.601562 L 8 65.601562 C 7.117188 65.601562 6.398438 64.882812 6.398438 64 L 6.398438 16 C 6.398438 15.117188 7.117188 14.398438 8 14.398438 L 72 14.398438 C 72.882812 14.398438 73.601562 15.117188 73.601562 16 L 73.601562 44.929688 L 76.800781 44.476562 L 76.800781 16 C 76.800781 13.355469 74.644531 11.199219 72 11.199219 Z M 72 11.199219 "/>
    <path style="fill:none;stroke-width:2;stroke-linecap:butt;stroke-linejoin:miter;stroke:#000000;stroke-opacity:1;stroke-miterlimit:10;" d="M 8.000488 31.000977 C 8.222656 27.197266 13.317871 27.751465 14.025879 25.778809 C 14.084473 25.102539 13.999023 24.616699 13.999023 23.999023 C 13.706055 23.840332 13.217773 22.834473 13.129883 21.970215 C 12.895508 21.950684 12.53418 21.716309 12.424316 20.791016 C 12.365723 20.292969 12.595215 20.014648 12.734375 19.926758 C 11.950684 16.799316 12.380371 14.067383 15.964355 13.999023 C 16.85791 13.999023 17.546387 14.248047 17.814941 14.736328 C 20.427246 15.112305 19.643555 18.75 19.267578 19.926758 C 19.406738 20.014648 19.633789 20.292969 19.577637 20.791016 C 19.470215 21.716309 19.104004 21.950684 18.87207 21.970215 C 18.781738 22.834473 18.293457 23.840332 18.000488 23.999023 C 18.000488 24.616699 17.937012 25.10498 17.995605 25.778809 C 18.703613 27.751465 23.779297 27.197266 23.999023 31.000977 Z M 8.000488 31.000977 " transform="matrix(1.6,0,0,1.6,0,0)"/>
  </g>
</svg>