<?xml version="1.0" encoding="UTF-8" standalone="yes"?>
<svg xmlns="http://www.w3.org/2000/svg" xmlns:xlink="http://www.w3.org/1999/xlink" width="80pt" height="80pt" viewBox="0 0 80 80" version="1.1" fill="#000000">
  <g id="surface69440">
    <path style="fill:none;stroke-width:1;stroke-linecap:butt;stroke-linejoin:miter;stroke:#000000;stroke-opacity:1;stroke-miterlimit:10;" d="M 14.5 9 L 14.5 13.5 L 16 13.5 " transform="matrix(5,0,0,5,0,0)"/>
    <path style="fill:none;stroke-width:1;stroke-linecap:butt;stroke-linejoin:round;stroke:#000000;stroke-opacity:1;stroke-miterlimit:10;" d="M 12.5 14 L 12.5 10.5 C 12.5 9.947656 12.052344 9.5 11.5 9.5 C 10.947656 9.5 10.5 9.947656 10.5 10.5 M 8.5 14 L 8.5 10.5 C 8.5 9.947656 8.947656 9.5 9.5 9.5 C 10.052344 9.5 10.5 9.947656 10.5 10.5 L 10.5 14 M 7 9.5 L 4 9.5 M 5.5 14 L 5.5 9.5 " transform="matrix(5,0,0,5,0,0)"/>
    <path style="fill:none;stroke-width:1;stroke-linecap:butt;stroke-linejoin:miter;stroke:#000000;stroke-opacity:1;stroke-miterlimit:10;" d="M 2.5 11.5 L 0.5 11.5 M 0.5 14 L 0.5 9 M 0.5 14 L 0.5 9 M 2.5 14 L 2.5 9 M 13.5 8 L 13.5 3.5 C 13.5 2.947656 13.052344 2.5 12.5 2.5 L 3.5 2.5 C 2.947656 2.5 2.5 2.947656 2.5 3.5 L 2.5 8 " transform="matrix(5,0,0,5,0,0)"/>
  </g>
</svg>