<?xml version="1.0" encoding="UTF-8" standalone="yes"?>
<svg xmlns="http://www.w3.org/2000/svg" xmlns:xlink="http://www.w3.org/1999/xlink" width="80pt" height="80pt" viewBox="0 0 80 80" version="1.1" fill="#000000">
  <g id="surface70741">
    <path style="fill:none;stroke-width:2;stroke-linecap:butt;stroke-linejoin:miter;stroke:#000000;stroke-opacity:1;stroke-miterlimit:10;" d="M 46.000977 13.000488 L 3.999023 13.000488 C 2.34375 13.000488 1.000977 14.343262 1.000977 16.000977 L 1.000977 33.999023 C 1.000977 35.656738 2.34375 36.999512 3.999023 36.999512 L 46.000977 36.999512 C 47.65625 36.999512 48.999023 35.656738 48.999023 33.999023 L 48.999023 16.000977 C 48.999023 14.343262 47.65625 13.000488 46.000977 13.000488 Z M 46.000977 13.000488 " transform="matrix(1.6,0,0,1.6,0,0)"/>
    <path style=" stroke:none;fill-rule:nonzero;fill:#000000;fill-opacity:1;" d="M 11.0625 44.957031 L 11.0625 35.9375 L 15.265625 35.9375 C 17.066406 35.9375 18.128906 36.789062 18.128906 38.1875 C 18.128906 39.15625 17.40625 39.976562 16.449219 40.105469 L 16.449219 40.226562 C 17.628906 40.289062 18.542969 41.207031 18.542969 42.355469 C 18.542969 43.9375 17.324219 44.957031 15.390625 44.957031 Z M 13.355469 39.613281 L 14.566406 39.613281 C 15.40625 39.613281 15.894531 39.226562 15.894531 38.589844 C 15.894531 37.945312 15.4375 37.558594 14.65625 37.558594 L 13.355469 37.558594 Z M 14.742188 43.339844 C 15.691406 43.339844 16.210938 42.921875 16.210938 42.160156 C 16.210938 41.421875 15.679688 41.007812 14.730469 41.007812 L 13.355469 41.007812 L 13.355469 43.339844 Z M 23.121094 41.601562 C 23.121094 42.652344 23.695312 43.269531 24.714844 43.269531 C 25.734375 43.269531 26.300781 42.652344 26.300781 41.601562 L 26.300781 35.9375 L 28.59375 35.9375 L 28.59375 41.84375 C 28.59375 43.871094 27.058594 45.203125 24.714844 45.203125 C 22.371094 45.203125 20.824219 43.871094 20.824219 41.84375 L 20.824219 35.9375 L 23.121094 35.9375 Z M 33.472656 44.957031 L 33.472656 37.785156 L 30.871094 37.785156 L 30.871094 35.941406 L 38.367188 35.941406 L 38.367188 37.785156 L 35.761719 37.785156 L 35.761719 44.957031 Z M 42.742188 44.957031 L 42.742188 37.785156 L 40.144531 37.785156 L 40.144531 35.941406 L 47.636719 35.941406 L 47.636719 37.785156 L 45.03125 37.785156 L 45.03125 44.957031 Z M 58.078125 40.445312 C 58.078125 43.382812 56.351562 45.203125 53.640625 45.203125 C 50.914062 45.203125 49.191406 43.382812 49.191406 40.445312 C 49.191406 37.511719 50.933594 35.695312 53.640625 35.695312 C 56.351562 35.695312 58.078125 37.511719 58.078125 40.445312 Z M 51.527344 40.445312 C 51.527344 42.1875 52.359375 43.300781 53.636719 43.300781 C 54.90625 43.300781 55.742188 42.1875 55.742188 40.445312 C 55.742188 38.707031 54.902344 37.59375 53.636719 37.59375 C 52.371094 37.59375 51.527344 38.707031 51.527344 40.445312 Z M 60.417969 44.957031 L 60.417969 35.9375 L 62.25 35.9375 L 66.007812 41.015625 L 66.125 41.015625 L 66.125 35.9375 L 68.300781 35.9375 L 68.300781 44.957031 L 66.480469 44.957031 L 62.710938 39.832031 L 62.59375 39.832031 L 62.59375 44.957031 Z M 60.417969 44.957031 "/>
  </g>
</svg>